# Blender 3.1.0
# www.blender.org
mtllib Cleaver.mtl
o Cube.006
v 0.015877 0.066495 -0.006449
v 0.013159 -0.067499 -0.004399
v 0.015877 0.066495 0.006449
v 0.013159 -0.067499 0.004399
v -0.014188 0.066495 -0.006449
v -0.010246 -0.067499 -0.004399
v -0.014188 0.066495 0.006449
v -0.010246 -0.067499 0.004399
v 0.011379 0.043565 -0.008951
v -0.014188 0.043565 0.008951
v 0.011379 0.043565 0.008951
v -0.014188 0.043565 -0.008951
v -0.014188 -0.063875 -0.006471
v -0.014188 -0.063875 0.006471
v 0.017100 -0.063875 -0.006471
v 0.017100 -0.063875 0.006471
v -0.014708 0.044043 0.002607
v 0.057628 0.045046 0.000454
v -0.014708 0.230226 0.000454
v 0.049144 0.216786 0.000454
v -0.014708 0.205888 0.002607
v 0.055243 0.199390 0.000454
v -0.014708 0.183001 0.002607
v 0.056350 0.178524 0.000454
v -0.014708 0.156769 0.002607
v 0.056780 0.155304 0.000454
v -0.014708 0.125336 0.002607
v 0.057445 0.125121 0.000454
v -0.014708 0.096499 0.002607
v 0.057782 0.095361 0.000454
v -0.014708 0.070159 0.002607
v 0.057658 0.068375 0.000454
v -0.014708 0.044043 -0.002607
v 0.057628 0.045046 -0.000454
v -0.014708 0.230226 -0.000454
v 0.049144 0.216786 -0.000454
v -0.014708 0.205888 -0.002607
v 0.055243 0.199390 -0.000454
v -0.014708 0.183001 -0.002607
v 0.056350 0.178524 -0.000454
v -0.014708 0.156769 -0.002607
v 0.056780 0.155304 -0.000454
v -0.014708 0.125336 -0.002607
v 0.057445 0.125121 -0.000454
v -0.014708 0.096499 -0.002607
v 0.057782 0.095361 -0.000454
v -0.014708 0.070159 -0.002607
v 0.057658 0.068375 -0.000454
v -0.006942 0.044487 0.002607
v 0.045283 0.227295 0.000454
v -0.010512 0.204471 0.002607
v -0.009155 0.182024 0.002607
v -0.008114 0.156450 0.002607
v -0.007178 0.125289 0.002607
v -0.006809 0.096251 0.002607
v -0.006675 0.069770 0.002607
v -0.006942 0.044487 -0.002607
v 0.045283 0.227295 -0.000454
v -0.010512 0.204471 -0.002607
v -0.009155 0.182024 -0.002607
v -0.008114 0.156450 -0.002607
v -0.007178 0.125289 -0.002607
v -0.006809 0.096251 -0.002607
v -0.006675 0.069770 -0.002607
vn -0.0000 0.0652 -0.0000
vn -0.0000 0.0383 0.0079
vn -0.0156 -0.0000 -0.0000
vn -0.0000 -0.0652 -0.0000
vn 0.0121 -0.0413 -0.0000
vn -0.0000 0.0383 -0.0079
vn -0.0000 -0.0099 -0.0097
vn 0.0153 0.0141 -0.0000
vn -0.0000 -0.0099 0.0097
vn -0.0034 -0.0637 -0.0000
vn -0.0000 -0.0630 -0.0025
vn -0.0000 -0.0630 0.0025
vn 0.0034 -0.0637 -0.0000
vn 0.0008 0.0052 0.0097
vn 0.0008 0.0008 0.0098
vn 0.0008 0.0004 0.0098
vn 0.0008 0.0002 0.0098
vn 0.0008 -0.0000 0.0098
vn 0.0008 -0.0001 0.0098
vn 0.0008 0.0052 -0.0097
vn 0.0008 0.0008 -0.0098
vn 0.0008 0.0004 -0.0098
vn 0.0008 0.0002 -0.0098
vn 0.0008 -0.0000 -0.0098
vn 0.0008 -0.0001 -0.0098
vn 0.0002 -0.0652 -0.0000
vn 0.0088 0.0538 -0.0000
vn 0.0086 0.0546 -0.0000
vn 0.0156 0.0050 -0.0000
vn 0.0156 0.0060 -0.0000
vn 0.0156 0.0031 -0.0000
vn 0.0156 -0.0012 -0.0000
vn 0.0156 -0.0003 -0.0000
vn 0.0002 0.0652 -0.0000
vn -0.0000 -0.0000 -0.0098
vn 0.0001 0.0320 -0.0085
vn -0.0000 -0.0000 0.0098
vn 0.0001 0.0320 0.0085
vt 1.000000 0.000000
vt 0.307229 0.539331
vt 0.357147 0.015255
vt 0.266342 0.207398
vt 0.742689 0.000000
vt 0.742689 0.405402
vt 0.049918 0.539331
vt 0.090805 0.207398
vt 1.000000 0.374892
vt 0.049918 0.929479
vt 0.357147 0.390147
vt 0.266342 0.022706
vt 0.742689 0.374892
vt 0.742689 0.780294
vt 0.307229 0.929479
vt 0.090805 0.022706
vt 0.417379 0.071341
vt 0.357147 0.450706
vt 0.357147 0.860858
vt 0.682458 0.780294
vt 0.000000 0.450706
vt 0.682458 0.461488
vt 0.417378 0.390147
vt 0.000000 0.860858
vt 0.742689 0.390147
vt 0.049470 0.539331
vt 0.307677 0.000000
vt 0.307677 0.539331
vt 0.357147 0.780294
vt 0.049470 0.000000
vt 0.742689 0.000000
vt 0.307677 0.246903
vt 0.357147 0.390147
vt 0.049470 0.246903
vt 0.541096 0.000000
vt 0.543004 0.260872
vt 0.539188 1.000000
vt 0.278544 0.989063
vt 0.543336 0.970500
vt 0.542216 0.000000
vt 0.540308 1.000000
vt 0.543336 0.000000
vt 0.539185 0.000000
vt 0.462289 0.072186
vt 0.543336 0.102495
vt 0.541096 0.869281
vt 0.539187 0.130720
vt 0.398373 0.165622
vt 0.543336 0.215676
vt 0.541096 0.746352
vt 0.539187 0.253648
vt 0.352836 0.277694
vt 0.543336 0.334400
vt 0.541096 0.605460
vt 0.539187 0.394541
vt 0.317875 0.402407
vt 0.543336 0.457919
vt 0.541096 0.436630
vt 0.539187 0.563370
vt 0.286485 0.564520
vt 0.543336 0.610791
vt 0.541096 0.281744
vt 0.539188 0.718256
vt 0.274083 0.724364
vt 0.543336 0.751374
vt 0.541096 0.140275
vt 0.539187 0.859725
vt 0.269594 0.869310
vt 0.543336 0.875157
vt 0.539188 0.000000
vt 0.541096 0.260872
vt 0.269594 0.000000
vt 0.008950 0.010937
vt 0.543004 0.970500
vt 0.541884 0.000000
vt 0.539975 1.000000
vt 0.543004 0.000000
vt 0.269592 1.000000
vt 0.192695 0.927814
vt 0.543004 0.102495
vt 0.539188 0.869281
vt 0.269594 0.869280
vt 0.128780 0.834378
vt 0.543004 0.215676
vt 0.539188 0.746352
vt 0.269594 0.746352
vt 0.083243 0.722306
vt 0.543004 0.334400
vt 0.539188 0.605460
vt 0.269594 0.605459
vt 0.048281 0.597593
vt 0.543004 0.457919
vt 0.539188 0.436630
vt 0.269594 0.436630
vt 0.016891 0.435479
vt 0.543004 0.610791
vt 0.539188 0.281744
vt 0.269594 0.281744
vt 0.004489 0.275636
vt 0.543004 0.751374
vt 0.539188 0.140275
vt 0.269594 0.140275
vt 0.000000 0.130690
vt 0.543004 0.875157
vt 0.543004 0.203989
vt 0.482355 0.997615
vt 0.543336 0.022349
vt 0.522418 0.015740
vt 0.508483 0.138330
vt 0.498554 0.258891
vt 0.490931 0.396256
vt 0.484086 0.563621
vt 0.481382 0.719588
vt 0.480403 0.861815
vt 0.541096 0.203989
vt 0.212761 0.002385
vt 0.543004 0.022349
vt 0.252824 0.984260
vt 0.238890 0.861670
vt 0.228960 0.741108
vt 0.221337 0.603744
vt 0.214492 0.436379
vt 0.211788 0.280412
vt 0.210809 0.138185
s 0
usemtl Material.003
f 1/1/1 5/9/1 7/13/1 3/5/1
f 11/22/2 3/6/2 7/14/2 10/20/2
f 10/19/3 7/15/3 5/10/3 12/24/3
f 6/12/4 2/4/4 4/8/4 8/16/4
f 9/18/5 1/2/5 3/7/5 11/21/5
f 12/23/6 5/11/6 1/3/6 9/17/6
f 13/25/7 12/23/7 9/17/7 15/31/7
f 15/32/8 9/18/8 11/21/8 16/34/8
f 14/28/3 10/19/3 12/24/3 13/26/3
f 16/33/9 11/22/9 10/20/9 14/29/9
f 6/12/10 8/16/10 14/30/10 13/27/10
f 2/4/11 6/12/11 13/27/11 15/32/11
f 8/16/12 4/8/12 16/34/12 14/30/12
f 4/8/13 2/4/13 15/32/13 16/34/13
usemtl Material.004
f 51/109/14 22/48/14 20/44/14 50/108/14
f 52/110/15 24/52/15 22/48/15 51/109/15
f 53/111/16 26/56/16 24/52/16 52/110/16
f 54/112/16 28/60/16 26/56/16 53/111/16
f 55/113/17 30/64/17 28/60/17 54/112/17
f 56/114/18 32/68/18 30/64/18 55/113/18
f 49/106/19 18/38/19 32/68/19 56/114/19
f 59/119/20 58/118/20 36/79/20 38/83/20
f 60/120/21 59/119/21 38/83/21 40/87/21
f 61/121/22 60/120/22 40/87/22 42/91/22
f 62/122/22 61/121/22 42/91/22 44/95/22
f 63/123/23 62/122/23 44/95/23 46/99/23
f 64/124/24 63/123/24 46/99/24 48/103/24
f 57/116/25 64/124/25 48/103/25 34/73/25
f 17/35/3 31/66/3 47/101/3 33/70/3
f 49/105/26 17/36/26 33/71/26 57/115/26
f 20/45/27 22/49/27 38/84/27 36/80/27
f 50/107/28 20/45/28 36/80/28 58/117/28
f 21/46/3 19/41/3 35/76/3 37/81/3
f 22/49/8 24/53/8 40/88/8 38/84/8
f 23/50/3 21/46/3 37/81/3 39/85/3
f 24/53/29 26/57/29 42/92/29 40/88/29
f 25/54/3 23/50/3 39/85/3 41/89/3
f 26/57/30 28/61/30 44/96/30 42/92/30
f 27/58/3 25/54/3 41/89/3 43/93/3
f 28/61/31 30/65/31 46/100/31 44/96/31
f 29/62/3 27/58/3 43/93/3 45/97/3
f 30/65/32 32/69/32 48/104/32 46/100/32
f 31/66/3 29/62/3 45/97/3 47/101/3
f 32/69/33 18/39/33 34/74/33 48/104/33
f 19/42/34 50/107/34 58/117/34 35/77/34
f 18/40/4 49/105/4 57/115/4 34/75/4
f 33/72/35 47/102/35 64/124/35 57/116/35
f 47/102/35 45/98/35 63/123/35 64/124/35
f 45/98/35 43/94/35 62/122/35 63/123/35
f 43/94/35 41/90/35 61/121/35 62/122/35
f 41/90/35 39/86/35 60/120/35 61/121/35
f 39/86/35 37/82/35 59/119/35 60/120/35
f 37/82/36 35/78/36 58/118/36 59/119/36
f 17/37/37 49/106/37 56/114/37 31/67/37
f 31/67/37 56/114/37 55/113/37 29/63/37
f 29/63/37 55/113/37 54/112/37 27/59/37
f 27/59/37 54/112/37 53/111/37 25/55/37
f 25/55/37 53/111/37 52/110/37 23/51/37
f 23/51/37 52/110/37 51/109/37 21/47/37
f 21/47/38 51/109/38 50/108/38 19/43/38
