# Blender 3.1.0
# www.blender.org
mtllib Machete.mtl
o Cube.007
v -0.029736 -0.114816 -0.015360
v -0.029736 -0.114816 0.015360
v 0.028773 -0.171580 -0.013382
v -0.029720 -0.173314 0.013382
v 0.028773 -0.171580 0.013382
v -0.029720 -0.173314 -0.013382
v 0.029794 -0.360730 -0.013382
v 0.029794 -0.360730 0.013382
v -0.029720 -0.360730 -0.013382
v -0.029736 -0.374584 0.015360
v -0.029736 -0.159460 -0.015360
v -0.029736 -0.159460 0.015360
v -0.029720 -0.360730 0.013382
v -0.029736 -0.374584 -0.015360
v 0.050074 -0.387711 -0.015360
v 0.043147 -0.397689 -0.015360
v 0.043147 -0.397689 0.015360
v 0.050074 -0.387711 0.015360
v 0.050074 -0.380767 0.015360
v 0.047477 -0.373232 0.015167
v 0.047477 -0.373232 -0.015167
v 0.050074 -0.380767 -0.015360
v -0.029736 -0.385310 -0.015360
v -0.026359 -0.398919 -0.015360
v -0.029736 -0.385310 0.015360
v -0.026359 -0.398919 0.015360
v 0.048044 -0.114816 -0.005585
v 0.058224 -0.130195 -0.010544
v 0.058224 -0.130195 0.010544
v 0.048044 -0.114816 0.005585
v 0.058224 -0.147211 -0.010544
v 0.053149 -0.156977 -0.010592
v 0.053149 -0.156977 0.009960
v 0.058224 -0.147211 0.010544
v -0.027262 -0.131899 0.006840
v 0.041133 -0.131899 0.000868
v -0.027262 0.566046 0.000868
v -0.006994 0.560354 0.000868
v -0.027262 0.531686 0.006840
v 0.015776 0.542036 0.000868
v -0.027262 0.495178 0.006840
v 0.032336 0.507598 0.000868
v -0.027262 0.461892 0.006840
v 0.041133 0.461892 0.000868
v -0.027262 -0.131899 -0.006840
v 0.041133 -0.131899 -0.000868
v -0.027262 0.566046 -0.000868
v -0.006994 0.560354 -0.000868
v -0.027262 0.531686 -0.006840
v 0.015776 0.542036 -0.000868
v -0.027262 0.495178 -0.006840
v 0.032336 0.507598 -0.000868
v -0.027262 0.461892 -0.006840
v 0.041133 0.461892 -0.000868
v -0.027262 -0.131899 -0.000000
v 0.041133 -0.131899 -0.000000
v -0.027262 0.566046 0.000000
v -0.006994 0.560354 0.000000
v -0.027262 0.531686 0.000000
v 0.015776 0.542036 0.000000
v -0.027262 0.495178 0.000000
v 0.032336 0.507598 0.000000
v -0.027262 0.461892 0.000000
v 0.041133 0.461892 0.000000
vn -0.0000 0.0027 0.0342
vn 0.0012 -0.0002 -0.0341
vn -0.0342 -0.0000 -0.0000
vn -0.0000 0.1504 -0.0000
vn -0.0000 -0.0000 -0.0342
vn 0.0341 0.0036 -0.0000
vn -0.0000 -0.0000 0.0342
vn -0.0000 0.0800 0.0289
vn 0.0342 -0.0000 -0.0000
vn 0.0046 -0.1490 -0.0000
vn 0.0013 0.0122 0.0340
vn -0.0342 -0.0008 -0.0000
vn 0.0022 0.0354 0.0331
vn 0.0054 0.1485 -0.0000
vn -0.0342 0.0008 -0.0000
vn -0.0000 0.0800 -0.0289
vn -0.0000 0.0027 -0.0342
vn 0.0106 -0.1429 -0.0000
vn 0.0188 0.1256 -0.0000
vn -0.0231 -0.1109 -0.0000
vn 0.0111 0.1422 -0.0000
vn 0.0137 -0.1378 -0.0000
vn 0.0022 0.0399 -0.0329
vn 0.0001 -0.1504 -0.0000
vn 0.0024 0.0824 0.0285
vn 0.0037 0.0169 0.0337
vn 0.0031 0.0068 0.0340
vn 0.0030 -0.0000 0.0340
vn 0.0024 0.0824 -0.0285
vn 0.0037 0.0169 -0.0337
vn 0.0031 0.0068 -0.0340
vn 0.0030 -0.0000 -0.0340
vn -0.0000 -0.1504 -0.0000
vn 0.0061 0.1479 -0.0000
vn 0.0022 0.1501 -0.0000
vn 0.0146 0.1360 -0.0000
vn 0.0261 0.0972 -0.0000
vt 0.000000 0.949935
vt 1.000000 0.520593
vt 0.008484 0.548067
vt 0.191242 0.949935
vt 0.808758 0.520593
vt 0.412863 0.000140
vt 0.089320 0.183693
vt 0.357851 0.813260
vt 0.524461 0.548207
vt 0.492257 0.000472
vt 0.178926 0.867218
vt 0.191242 0.813260
vt 0.357851 0.548207
vt 0.493699 0.364514
vt 0.087878 0.547735
vt 0.012316 0.867218
vt 0.357851 0.548207
vt 0.524461 0.727132
vt 0.350453 0.177431
vt 0.191242 0.548207
vt 0.754832 0.370775
vt 0.524461 0.560523
vt 0.012316 0.602208
vt 0.348986 0.547832
vt 0.774771 0.000006
vt 0.191242 0.582618
vt 0.000000 0.886808
vt 0.070681 0.548090
vt 0.191242 0.886808
vt 0.475061 0.000116
vt 0.753365 0.000375
vt 0.178926 0.602208
vt 0.000000 0.582618
vt 0.370392 0.548201
vt 0.676699 0.548207
vt 0.390649 0.051490
vt 1.000000 0.987791
vt 0.404379 0.094608
vt 1.000000 0.942601
vt 0.808758 0.453599
vt 0.808758 0.942601
vt 0.795028 0.496717
vt 0.676699 0.739448
vt 0.808758 0.987791
vt 0.785353 0.496720
vt 0.686519 0.739448
vt 0.652640 0.548207
vt 0.774586 0.480585
vt 0.633766 0.549409
vt 0.370207 0.067622
vt 0.633766 0.738247
vt 0.686519 0.548207
vt 0.380974 0.051487
vt 0.652640 0.739448
vt 0.385336 0.548207
vt 0.000000 0.567451
vt 0.404379 0.527196
vt 0.000000 0.548207
vt 1.000000 0.520593
vt 0.789715 0.000000
vt 0.191242 0.567451
vt 0.808758 0.021011
vt 0.191242 0.548207
vt 0.808758 0.520593
vt 0.939149 0.066980
vt 0.000000 0.062705
vt 0.970019 0.000000
vt 0.652640 0.679486
vt 0.026954 0.000000
vt 0.431334 0.548207
vt 0.838740 0.000000
vt 0.652640 0.548207
vt 0.404379 0.485502
vt 0.869610 0.066980
vt 0.506795 0.735151
vt 0.676699 0.679486
vt 0.050660 0.000009
vt 0.505127 0.695352
vt 0.068093 0.036634
vt 0.472472 0.511572
vt 0.377185 0.695352
vt 0.455039 0.548198
vt 0.375516 0.735151
vt 0.676699 0.548207
vt 0.000000 0.000000
vt 1.000000 0.000000
vt 0.000000 1.000000
vt 1.000000 1.000000
vt 0.000000 0.950769
vt 1.000000 0.950769
vt 0.000000 0.898462
vt 1.000000 0.898462
vt 0.000000 0.850769
vt 1.000000 0.850769
vt 0.000000 0.000000
vt 1.000000 0.000000
vt 0.000000 1.000000
vt 1.000000 1.000000
vt 0.000000 0.950769
vt 1.000000 0.950769
vt 0.000000 0.898462
vt 1.000000 0.898462
vt 0.000000 0.850769
vt 1.000000 0.850769
vt 0.000000 0.000000
vt 1.000000 0.000000
vt 0.000000 1.000000
vt 1.000000 1.000000
vt 0.000000 0.950769
vt 1.000000 0.950769
vt 0.000000 0.898462
vt 1.000000 0.898462
vt 0.000000 0.850769
vt 1.000000 0.850769
s 0
usemtl Material.009
f 17/40/1 18/42/1 19/45/1 20/48/1 10/25/1 25/60/1 26/62/1
f 3/7/2 6/15/2 11/28/2 32/79/2
f 12/29/3 2/4/3 1/1/3 11/27/3
f 27/65/4 1/2/4 2/5/4 30/74/4
f 9/24/5 6/15/5 3/7/5 7/19/5
f 7/17/6 3/8/6 5/12/6 8/20/6
f 13/32/3 4/11/3 6/16/3 9/23/3
f 8/21/7 5/14/7 4/10/7 13/31/7
f 8/21/8 13/31/8 10/25/8 20/48/8
f 25/61/3 10/26/3 14/33/3 23/56/3
f 15/35/9 22/52/9 19/46/9 18/43/9
f 5/13/10 3/9/10 32/78/10 33/81/10
f 4/10/11 5/14/11 33/80/11 12/30/11
f 6/16/12 4/11/12 12/29/12 11/27/12
f 34/82/13 29/70/13 30/73/13 2/6/13 12/30/13 33/80/13
f 7/18/14 8/22/14 20/49/14 21/51/14
f 13/32/15 9/23/15 14/33/15 10/26/15
f 9/24/16 7/19/16 21/50/16 14/34/16
f 21/50/17 22/53/17 15/36/17 16/38/17 24/57/17 23/55/17 14/34/17
f 17/41/18 16/39/18 15/37/18 18/44/18
f 21/51/19 20/49/19 19/47/19 22/54/19
f 24/58/20 26/63/20 25/61/20 23/56/20
f 27/65/21 30/74/21 29/71/21 28/67/21
f 31/75/22 34/83/22 33/81/22 32/78/22
f 31/76/9 28/68/9 29/72/9 34/84/9
f 31/77/23 32/79/23 11/28/23 1/3/23 27/66/23 28/69/23
f 24/59/24 16/39/24 17/41/24 26/64/24
usemtl Material.010
f 39/89/25 40/90/25 38/88/25 37/87/25
f 41/91/26 42/92/26 40/90/26 39/89/26
f 43/93/27 44/94/27 42/92/27 41/91/27
f 35/85/28 36/86/28 44/94/28 43/93/28
f 49/99/29 47/97/29 48/98/29 50/100/29
f 51/101/30 49/99/30 50/100/30 52/102/30
f 53/103/31 51/101/31 52/102/31 54/104/31
f 45/95/32 53/103/32 54/104/32 46/96/32
f 55/105/3 63/113/3 53/103/3 45/95/3
f 56/106/33 55/105/33 45/95/33 46/96/33
f 58/108/34 60/110/34 50/100/34 48/98/34
f 57/107/35 58/108/35 48/98/35 47/97/35
f 59/109/3 57/107/3 47/97/3 49/99/3
f 60/110/36 62/112/36 52/102/36 50/100/36
f 61/111/3 59/109/3 49/99/3 51/101/3
f 62/112/37 64/114/37 54/104/37 52/102/37
f 63/113/3 61/111/3 51/101/3 53/103/3
f 64/114/9 56/106/9 46/96/9 54/104/9
f 44/94/9 36/86/9 56/106/9 64/114/9
f 43/93/3 41/91/3 61/111/3 63/113/3
f 42/92/37 44/94/37 64/114/37 62/112/37
f 41/91/3 39/89/3 59/109/3 61/111/3
f 40/90/36 42/92/36 62/112/36 60/110/36
f 39/89/3 37/87/3 57/107/3 59/109/3
f 37/87/35 38/88/35 58/108/35 57/107/35
f 38/88/34 40/90/34 60/110/34 58/108/34
f 36/86/33 35/85/33 55/105/33 56/106/33
f 35/85/3 43/93/3 63/113/3 55/105/3
