# Blender 3.1.0
# www.blender.org
mtllib Police Baton.mtl
o Cube
v 0.008956 0.128868 -0.008577
v 0.010445 -0.244667 -0.010067
v 0.008956 0.128868 0.008577
v 0.010445 -0.244667 0.010067
v -0.008198 0.128868 -0.008577
v -0.009688 -0.244667 -0.010067
v -0.008198 0.128868 0.008577
v -0.009688 -0.244667 0.010067
v 0.014838 -0.037893 -0.014459
v -0.014080 -0.037893 0.014459
v 0.014838 -0.037893 0.014459
v -0.014080 -0.037893 -0.014459
v 0.016703 -0.086369 -0.016324
v 0.016703 -0.086369 0.016324
v -0.015945 -0.086369 -0.016324
v -0.015945 -0.086369 0.016324
v -0.015945 -0.046869 0.016324
v 0.016703 -0.046869 -0.016324
v 0.016703 -0.046869 0.016324
v -0.015945 -0.046869 -0.016324
v 0.014838 0.128868 0.014459
v -0.014080 0.128868 0.014459
v 0.014838 0.128868 -0.014459
v -0.014080 0.128868 -0.014459
v 0.011394 0.448539 0.011015
v -0.010636 0.448539 0.011015
v 0.011394 0.448539 -0.011015
v -0.010636 0.448539 -0.011015
v 0.006185 0.457859 0.005806
v -0.005428 0.457859 0.005806
v 0.006185 0.457859 -0.005806
v -0.005428 0.457859 -0.005806
v 0.011394 0.455240 0.011015
v -0.010636 0.455240 0.011015
v 0.011394 0.455240 -0.011015
v -0.010636 0.455240 -0.011015
v 0.008956 0.447913 0.008577
v -0.008198 0.447913 0.008577
v 0.008956 0.447913 -0.008577
v -0.008198 0.447913 -0.008577
v 0.123482 -0.069475 -0.008945
v 0.015702 -0.070820 -0.010290
v 0.123482 -0.069475 0.008945
v 0.015702 -0.070820 0.010290
v 0.123482 -0.051584 -0.008945
v 0.015702 -0.050239 -0.010290
v 0.123482 -0.051584 0.008945
v 0.015702 -0.050239 0.010290
v 0.108763 -0.074310 -0.013781
v 0.106958 -0.050239 0.010290
v 0.108763 -0.074310 0.013781
v 0.108763 -0.046748 -0.013781
v 0.106958 -0.050239 -0.010290
v 0.106958 -0.070820 -0.010290
v 0.106958 -0.070820 0.010290
v 0.108763 -0.046748 0.013781
v 0.121403 -0.074310 0.013781
v 0.121403 -0.046748 0.013781
v 0.121403 -0.074310 -0.013781
v 0.121403 -0.046748 -0.013781
v -0.015945 -0.231606 -0.016324
v -0.015945 -0.231606 0.016324
v 0.016703 -0.231606 -0.016324
v 0.016703 -0.231606 0.016324
vn -0.0163 -0.0000 -0.0000
vn -0.0000 -0.0000 0.0163
vn -0.0000 -0.2329 -0.0000
vn 0.0163 -0.0000 -0.0000
vn -0.0000 -0.0000 -0.0163
vn -0.0000 0.2206 -0.0052
vn 0.0052 0.2206 -0.0000
vn -0.0052 0.2206 -0.0000
vn -0.0000 0.2206 0.0052
vn -0.0000 0.2329 -0.0000
vn -0.0000 0.2327 0.0006
vn 0.0006 0.2327 -0.0000
vn -0.0006 0.2327 -0.0000
vn -0.0000 0.2327 -0.0006
vn -0.0000 -0.2328 0.0003
vn 0.0003 -0.2328 -0.0000
vn -0.0003 -0.2328 -0.0000
vn -0.0000 -0.2328 -0.0003
vn -0.0145 -0.0000 -0.0075
vn -0.0022 -0.2308 -0.0000
vn -0.0022 0.2308 -0.0000
vn -0.0145 -0.0000 0.0075
vn 0.0150 -0.0000 0.0064
vn 0.0026 -0.2298 -0.0000
vn 0.0026 0.2298 -0.0000
vn 0.0150 -0.0000 -0.0064
vn -0.0024 -0.2304 -0.0000
vn -0.0000 -0.2304 -0.0024
vn -0.0000 -0.2304 0.0024
vn 0.0024 -0.2304 -0.0000
vt 0.499261 0.564236
vt 0.352115 0.601808
vt 0.285631 0.688456
vt 0.381138 0.388067
vt 0.499261 0.454662
vt 0.787125 0.417090
vt 0.176058 0.688456
vt 0.381138 0.237568
vt 0.677551 0.559954
vt 0.389687 0.564236
vt 0.461689 0.601808
vt 0.531637 0.388067
vt 0.787125 0.559954
vt 0.389687 0.454662
vt 0.677551 0.417090
vt 0.531637 0.237568
vt 0.861798 0.601808
vt 0.800779 0.184717
vt 0.548740 0.196631
vt 0.800779 0.000000
vt 0.536362 0.786525
vt 0.364023 0.011914
vt 0.800779 0.184717
vt 0.861798 0.417090
vt 0.548740 0.011914
vt 0.536362 0.601808
vt 0.800779 0.369435
vt 0.364023 0.196631
vt 0.578348 0.417090
vt 0.661070 0.000000
vt 0.661070 0.417090
vt 0.578348 0.208545
vt 0.625695 0.208545
vt 0.661070 0.208545
vt 0.661070 0.208545
vt 0.625695 0.000000
vt 0.352115 0.000000
vt 0.643383 0.208545
vt 0.643383 0.000000
vt 0.560660 0.208545
vt 0.560660 0.417090
vt 0.643383 0.000000
vt 0.560660 0.000000
vt 0.643383 0.417090
vt 0.560660 0.208545
vt 0.352115 0.208545
vt 0.643383 0.208545
vt 0.726106 0.184717
vt 0.787125 0.417090
vt 0.536833 0.417090
vt 0.726106 0.000000
vt 0.461689 0.786525
vt 0.352115 0.417090
vt 0.787125 0.601808
vt 0.726106 0.184717
vt 0.536833 0.601808
vt 0.461689 0.601808
vt 0.726106 0.369435
vt 0.352115 0.601808
vt 0.806780 0.140719
vt 0.536833 0.557809
vt 0.803779 0.281438
vt 0.806780 0.000000
vt 0.677551 0.557809
vt 0.803780 0.000000
vt 0.806780 0.281438
vt 0.536833 0.698528
vt 0.803779 0.140719
vt 0.677551 0.698528
vt 0.644279 0.450361
vt 0.570102 0.450361
vt 0.644279 0.524538
vt 0.570102 0.524538
vt 0.803780 0.140719
vt 0.677551 0.417090
vt 0.800779 0.281438
vt 0.803780 0.000000
vt 0.536833 0.417090
vt 0.800779 0.000000
vt 0.803779 0.281438
vt 0.677551 0.557809
vt 0.800779 0.140719
vt 0.536833 0.557809
vt 0.787125 0.559955
vt 0.176058 0.831320
vt 0.552406 0.573382
vt 0.787125 0.702819
vt 0.677551 0.559955
vt 0.661979 0.573382
vt 0.352115 0.744672
vt 0.285631 0.831320
vt 0.552406 0.682955
vt 0.677551 0.702819
vt 0.461689 0.744672
vt 0.661979 0.682955
vt 0.321226 0.688456
vt 0.789290 0.632697
vt 0.808683 0.601808
vt 0.880230 1.000000
vt 0.329818 0.000000
vt 0.789290 0.746977
vt 0.206947 0.688456
vt 0.808683 0.733270
vt 0.198355 0.000000
vt 0.861798 1.000000
vt 0.145169 0.000000
vt 0.797302 0.632697
vt 0.799467 0.601808
vt 0.871014 1.000000
vt 0.153760 0.688457
vt 0.797302 0.746977
vt 0.030889 0.000000
vt 0.799467 0.733270
vt 0.022298 0.688457
vt 0.871014 1.000000
vt 0.012342 0.769194
vt 0.049368 0.688457
vt 0.352115 0.594432
vt 0.871014 0.417090
vt 0.022298 0.105549
vt 0.035463 0.710755
vt 0.012342 0.769194
vt 0.176058 0.594432
vt 0.024684 0.688457
vt 0.000000 0.769194
vt 0.037026 0.688457
vt 0.176058 0.094021
vt 0.871014 0.417090
vt 0.038589 0.710755
vt 0.153760 0.105549
vt 0.880230 0.417090
vt 0.047805 0.710755
vt 0.329818 0.582907
vt 0.861798 0.417090
vt 0.198355 0.582907
vt 0.026247 0.710755
vt 0.024684 0.769194
vt 0.000000 0.094021
vt 0.037026 0.688457
vt 0.012342 0.688457
vt 0.787125 0.777865
vt 0.176058 0.675168
vt 0.024684 0.688457
vt 0.799467 0.777865
vt 0.000000 0.013285
vt 0.012342 0.688457
vt 0.352115 0.675168
vt 0.787125 0.601808
vt 0.000000 0.688457
vt 0.176058 0.013285
vt 0.799467 0.601808
vt 0.560660 0.208545
vt 0.726106 0.208545
vt 0.560660 0.417090
vt 0.726106 0.208545
vt 0.560660 0.000000
vt 0.560660 0.208545
vt 0.643383 0.417090
vt 0.726106 0.000000
vt 0.352115 0.417090
vt 0.726106 0.417090
vt 0.643383 0.208545
vt 0.352115 0.208545
s 0
usemtl Material
f 5/9/1 7/13/1 38/87/1 40/93/1
f 11/23/2 21/48/2 22/51/2 10/20/2
f 10/21/1 22/52/1 24/57/1 12/26/1
f 6/12/3 2/4/3 4/8/3 8/16/3
f 9/17/4 23/54/4 21/49/4 11/24/4
f 12/27/5 24/58/5 23/55/5 9/18/5
f 20/46/6 12/28/6 9/19/6 18/40/6
f 18/40/7 9/19/7 11/25/7 19/43/7
f 17/37/8 10/22/8 12/28/8 20/46/8
f 19/43/9 11/25/9 10/22/9 17/37/9
f 64/161/2 14/31/2 16/35/2 62/155/2
f 62/156/1 16/36/1 15/33/1 61/152/1
f 63/158/4 13/29/4 14/32/4 64/162/4
f 61/153/5 15/34/5 13/30/5 63/159/5
f 14/31/2 19/44/2 17/38/2 16/35/2
f 16/36/1 17/39/1 20/47/1 15/33/1
f 13/29/4 18/41/4 19/45/4 14/32/4
f 15/34/5 20/47/5 18/42/5 13/30/5
f 3/5/10 7/14/10 22/53/10 21/50/10
f 1/1/10 3/5/10 21/50/10 23/56/10
f 7/14/10 5/10/10 24/59/10 22/53/10
f 5/10/10 1/1/10 23/56/10 24/59/10
f 27/65/5 28/68/5 36/82/5 35/79/5
f 7/15/2 3/6/2 37/84/2 38/88/2
f 1/2/5 5/11/5 40/94/5 39/90/5
f 3/7/4 1/3/4 39/91/4 37/85/4
f 31/72/10 32/73/10 30/71/10 29/70/10
f 25/60/4 27/66/4 35/80/4 33/74/4
f 28/68/1 26/62/1 34/76/1 36/82/1
f 26/63/2 25/60/2 33/74/2 34/77/2
f 29/70/11 30/71/11 34/78/11 33/75/11
f 31/72/12 29/70/12 33/75/12 35/81/12
f 30/71/13 32/73/13 36/83/13 34/78/13
f 32/73/14 31/72/14 35/81/14 36/83/14
f 25/61/15 26/64/15 38/89/15 37/86/15
f 27/67/16 25/61/16 37/86/16 39/92/16
f 26/64/17 28/69/17 40/95/17 38/89/17
f 28/69/18 27/67/18 39/92/18 40/95/18
f 41/97/4 45/107/4 47/111/4 43/101/4
f 51/122/2 57/140/2 58/143/2 56/137/2
f 56/138/10 58/145/10 60/150/10 52/127/10
f 46/108/1 42/98/1 44/103/1 48/113/1
f 49/118/3 59/147/3 57/142/3 51/123/3
f 52/125/5 60/149/5 59/146/5 49/116/5
f 46/109/5 53/128/5 54/131/5 42/99/5
f 42/100/3 54/133/3 55/135/3 44/104/3
f 48/114/10 50/120/10 53/130/10 46/110/10
f 44/105/2 55/134/2 50/119/2 48/115/2
f 52/126/19 49/117/19 54/132/19 53/129/19
f 49/118/20 51/123/20 55/135/20 54/133/20
f 56/138/21 52/127/21 53/130/21 50/120/21
f 51/124/22 56/139/22 50/121/22 55/136/22
f 43/101/23 47/111/23 58/144/23 57/141/23
f 41/96/24 43/102/24 57/142/24 59/147/24
f 47/112/25 45/106/25 60/150/25 58/145/25
f 45/107/26 41/97/26 59/148/26 60/151/26
f 6/12/27 8/16/27 62/157/27 61/154/27
f 2/4/28 6/12/28 61/154/28 63/160/28
f 8/16/29 4/8/29 64/163/29 62/157/29
f 4/8/30 2/4/30 63/160/30 64/163/30
