# Blender 3.1.0
# www.blender.org
mtllib Pickaxe.mtl
o Cube
v 0.022930 0.504488 -0.022930
v 0.014767 -0.395512 -0.014767
v 0.022930 0.504488 0.022930
v 0.014767 -0.395512 0.014767
v -0.022930 0.504488 -0.022930
v -0.014767 -0.395512 -0.014767
v -0.022930 0.504488 0.022930
v -0.014767 -0.395512 0.014767
v -0.152575 0.463073 0.021736
v -0.152575 0.479773 0.021736
v -0.152575 0.463073 -0.023307
v -0.152575 0.479773 -0.023307
v 0.181351 0.430867 0.012705
v 0.181353 0.456226 0.012824
v 0.182307 0.431000 -0.015773
v 0.182309 0.456360 -0.015654
v -0.100114 0.460836 -0.030885
v -0.100114 0.460836 0.029314
v -0.101166 0.482477 0.029314
v -0.101166 0.482477 -0.030885
v 0.092191 0.482397 -0.021169
v 0.092191 0.449259 -0.021169
v 0.092191 0.449259 0.023116
v 0.092191 0.482397 0.023116
v -0.023003 0.411306 -0.036008
v -0.032564 0.485826 -0.036008
v -0.023003 0.411306 0.034437
v -0.032564 0.485826 0.034437
v 0.290016 0.380571 -0.006313
v 0.288280 0.378310 -0.006382
v 0.288172 0.378295 -0.003180
v 0.289909 0.380556 -0.003111
v -0.186417 0.463046 -0.021293
v -0.186417 0.463046 0.019722
v -0.186417 0.477055 0.019722
v -0.186417 0.477055 -0.021293
v -0.217782 0.463505 -0.018262
v -0.217782 0.463505 0.016692
v -0.217782 0.466901 0.016692
v -0.217782 0.466901 -0.018262
v 0.037838 0.483550 -0.028148
v 0.023313 0.411342 0.031779
v 0.023313 0.411342 -0.028148
v 0.037838 0.483550 0.031779
v -0.061558 0.442140 -0.033446
v -0.066865 0.485268 0.031876
v -0.066865 0.485268 -0.033446
v -0.061558 0.442140 0.031876
v 0.038188 0.494363 0.031779
v -0.032214 0.496639 0.034437
v -0.032214 0.496639 -0.036008
v 0.038188 0.494363 -0.028148
vn -0.0000 0.4010 -0.0000
vn -0.0000 -0.0717 0.0197
vn -0.0197 -0.0717 -0.0000
vn -0.0000 -0.4010 -0.0000
vn 0.0197 -0.0717 -0.0000
vn -0.0000 -0.0717 -0.0197
vn -0.0012 -0.0000 -0.0200
vn 0.0022 -0.1237 -0.0189
vn 0.0026 -0.1180 0.0189
vn -0.0014 -0.0560 0.0198
vn 0.0005 -0.4008 -0.0000
vn -0.0001 0.4010 -0.0000
vn -0.0029 -0.0317 0.0197
vn -0.0029 -0.0317 -0.0197
vn 0.0012 0.0162 -0.0199
vn -0.0002 -0.4009 -0.0000
vn 0.0003 0.4009 -0.0000
vn 0.0023 -0.0162 0.0199
vn 0.0022 -0.0287 -0.0198
vn -0.0008 -0.4006 -0.0000
vn 0.0009 -0.0124 0.0200
vn -0.0015 -0.0739 -0.0196
vn 0.0013 -0.4001 -0.0000
vn -0.0005 -0.4008 -0.0000
vn 0.0007 0.4007 -0.0000
vn 0.0018 0.0098 -0.0199
vn -0.0003 0.4009 -0.0000
vn -0.0012 -0.0000 0.0200
vn -0.0200 -0.0000 -0.0000
vn -0.0019 -0.0000 -0.0199
vn -0.0019 -0.0000 0.0199
vn 0.0027 -0.1492 0.0184
vn 0.0027 -0.0361 -0.0197
vn -0.0014 -0.0560 -0.0198
vn -0.0015 -0.0739 0.0196
vn -0.0168 0.2181 -0.0000
vn 0.0168 -0.2181 -0.0000
vn 0.0008 -0.0098 0.0200
vt 0.666667 0.333333
vt 0.333333 0.748200
vt 1.000000 0.000000
vt 0.333333 0.374100
vt 0.666667 0.666667
vt 0.333333 0.374100
vt 0.000000 0.748200
vt 0.333333 0.000000
vt 1.000000 0.333333
vt 0.000000 0.374100
vt 1.000000 0.333333
vt 0.333333 0.374100
vt 0.666667 0.748200
vt 0.333333 0.000000
vt 0.666667 0.000000
vt 0.666667 0.374100
vt 1.000000 0.666667
vt 0.000000 0.374100
vt 0.666667 0.374100
vt 0.000000 0.000000
vt 0.666667 0.000000
vt 0.666667 0.333333
vt 0.524930 0.571653
vt 0.475070 0.571653
vt 0.725070 0.571653
vt 0.975070 0.000000
vt 0.024930 0.000000
vt 0.274930 0.571653
vt 0.225070 0.000000
vt 0.774930 0.000000
vt 0.524930 0.000000
vt 0.475070 0.000000
vt 0.725070 0.000000
vt 0.975070 0.571653
vt 0.274930 0.000000
vt 0.024930 0.571653
vt 0.774930 0.571653
vt 0.225070 0.571653
vt 0.000000 0.075348
vt 0.250000 0.496305
vt 0.500000 0.496305
vt 0.750000 0.496305
vt 1.000000 0.075348
vt 0.750000 0.075348
vt 0.250000 0.075348
vt 0.250000 0.496305
vt 0.750000 0.496305
vt 0.000000 0.496305
vt 0.250000 0.075348
vt 0.500000 0.075348
vt 0.750000 0.075348
vt 1.000000 0.496305
vt 0.250000 0.285443
vt 0.000000 0.286210
vt 0.250000 0.286210
vt 0.750000 0.286210
vt 0.500000 0.285443
vt 1.000000 0.286210
vt 0.750000 0.285443
vt 0.200139 0.771792
vt 0.774930 0.571653
vt 0.225070 0.571653
vt 0.200139 0.571653
vt 0.274930 0.000000
vt 0.024930 0.571653
vt 0.524930 0.000000
vt 0.000000 0.571653
vt 0.475070 0.000000
vt 0.725070 0.000000
vt 0.000000 0.771792
vt 0.975070 0.571653
vt 0.274930 0.571653
vt 0.024930 0.000000
vt 0.475070 0.571653
vt 0.524930 0.571653
vt 0.975070 0.000000
vt 0.725070 0.571653
vt 0.774930 0.000000
vt 0.225070 0.000000
vt 0.200139 0.571653
vt 0.274930 0.571653
vt 0.024930 0.000000
vt 0.400278 0.571653
vt 0.475070 0.571653
vt 0.524930 0.571653
vt 0.975070 0.000000
vt 0.400278 0.771792
vt 0.725070 0.571653
vt 0.774930 0.000000
vt 0.200139 0.771792
vt 0.225070 0.000000
vt 0.250000 0.370683
vt 0.750000 0.370683
vt 0.500000 0.200970
vt 0.250000 0.200970
vt 0.000000 0.370683
vt 1.000000 0.370683
vt 0.750000 0.200970
vt 0.000000 0.180779
vt 0.250000 0.390874
vt 1.000000 0.180779
vt 0.750000 0.390874
vt 0.250000 0.180779
vt 0.750000 0.180779
vt 0.500000 0.390874
vt 1.000000 0.370683
vt 0.750000 0.200970
vt 1.000000 0.286210
vt 0.750000 0.285443
vt 0.250000 0.286210
vt 0.750000 0.286210
vt 0.250000 0.370683
vt 0.750000 0.370683
s 0
usemtl Material
f 1/1/1 5/11/1 7/17/1 3/5/1
f 4/8/2 3/6/2 7/18/2 8/20/2
f 8/21/3 7/19/3 5/12/3 6/14/3
f 6/15/4 2/3/4 4/9/4 8/22/4
f 2/4/5 1/2/5 3/7/5 4/10/5
f 6/16/6 5/13/6 1/2/6 2/4/6
usemtl Material.001
f 12/29/7 11/27/7 33/73/7 36/79/7
f 43/96/8 41/92/8 21/46/8 22/48/8
f 14/33/9 13/31/9 31/66/9 32/69/9
f 48/105/10 46/102/10 19/42/10 18/41/10
f 43/95/11 22/49/11 23/50/11 42/94/11
f 47/104/12 20/44/12 19/43/12 46/101/12
f 9/24/4 11/28/4 17/40/4 18/41/4
f 10/25/13 9/23/13 18/41/13 19/42/13
f 12/30/12 10/26/12 19/43/12 20/44/12
f 11/27/14 12/29/14 20/45/14 17/39/14
f 16/38/15 15/36/15 22/48/15 21/46/15
f 15/35/16 13/32/16 23/50/16 22/49/16
f 14/34/17 16/37/17 21/47/17 24/52/17
f 13/31/18 14/33/18 24/51/18 23/50/18
f 41/92/19 26/55/19 51/110/19 52/112/19
f 45/100/20 25/53/20 27/57/20 48/105/20
f 42/94/21 44/98/21 28/59/21 27/57/21
f 45/99/22 47/103/22 26/55/22 25/54/22
f 30/63/23 29/60/23 32/70/23 31/67/23
f 13/32/24 15/35/24 30/64/24 31/68/24
f 16/37/25 14/34/25 32/71/25 29/61/25
f 15/36/26 16/38/26 29/62/26 30/65/26
f 35/76/27 36/78/27 40/89/27 39/86/27
f 9/23/28 10/25/28 35/77/28 34/75/28
f 10/26/12 12/30/12 36/78/12 35/76/12
f 11/28/4 9/24/4 34/74/4 33/72/4
f 38/83/29 39/87/29 40/90/29 37/80/29
f 33/72/4 34/74/4 38/84/4 37/81/4
f 36/79/30 33/73/30 37/82/30 40/91/30
f 34/75/31 35/77/31 39/88/31 38/85/31
f 23/50/32 24/51/32 44/98/32 42/94/32
f 21/47/1 41/93/1 44/97/1 24/52/1
f 25/53/4 43/95/4 42/94/4 27/57/4
f 25/54/33 26/55/33 41/92/33 43/96/33
f 17/39/34 20/45/34 47/103/34 45/99/34
f 17/40/24 45/100/24 48/105/24 18/41/24
f 26/56/1 47/104/1 46/101/1 28/58/1
f 27/57/35 28/59/35 46/102/35 48/105/35
f 52/113/1 51/111/1 50/108/1 49/106/1
f 26/56/36 28/58/36 50/108/36 51/111/36
f 44/97/37 41/93/37 52/113/37 49/106/37
f 28/59/38 44/98/38 49/107/38 50/109/38
