# Blender 3.1.0
# www.blender.org
mtllib SwitchBlade-Blade out.mtl
o Cube
v 0.008479 -0.007606 -0.001777
v 0.008479 -0.007606 0.001666
v -0.008693 -0.007606 -0.001777
v -0.008693 -0.007606 0.001666
v 0.012007 -0.013611 -0.002998
v -0.012221 -0.013611 0.003013
v 0.012007 -0.013611 0.003013
v -0.012221 -0.013611 -0.002998
v 0.007888 -0.024514 -0.003400
v 0.007888 -0.024514 0.003415
v -0.008102 -0.024514 -0.003400
v -0.008102 -0.024514 0.003415
v 0.008176 -0.112874 -0.003642
v 0.008176 -0.112874 0.003657
v -0.008359 -0.112874 -0.003642
v -0.019301 -0.006405 0.002085
v -0.019301 -0.002822 0.002085
v 0.017954 -0.016461 -0.002110
v 0.017954 -0.016461 0.002046
v -0.019301 -0.002822 -0.002071
v 0.017954 -0.020044 -0.002110
v 0.017954 -0.020044 0.002046
v -0.019301 -0.006405 -0.002071
v 0.007751 -0.018742 0.003554
v -0.007965 -0.018742 0.003554
v -0.007965 -0.018742 -0.003540
v 0.007751 -0.018742 -0.003540
v -0.008359 -0.112874 0.003657
v 0.005791 -0.041587 0.002137
v -0.006005 -0.041587 0.002137
v -0.006005 -0.041587 -0.002123
v 0.005791 -0.041587 -0.002123
v -0.005718 -0.101517 -0.002097
v 0.005535 -0.101517 -0.002097
v 0.005535 -0.101517 0.002112
v -0.005718 -0.101517 0.002112
v -0.008359 -0.112874 0.003657
v -0.003518 -0.117058 0.004144
v -0.007398 -0.115832 0.004001
v -0.003518 -0.117058 -0.004129
v -0.008359 -0.112874 -0.003642
v -0.007398 -0.115832 -0.003986
v 0.008176 -0.112874 -0.003642
v 0.003336 -0.117058 -0.004129
v 0.007215 -0.115832 -0.003986
v 0.003336 -0.117058 0.004144
v 0.008176 -0.112874 0.003657
v 0.007215 -0.115832 0.004001
v 0.012007 -0.008429 0.003013
v -0.012221 -0.008429 0.003013
v 0.012007 -0.008429 -0.002998
v -0.012221 -0.008429 -0.002998
v 0.008479 -0.006897 0.001666
v -0.008693 -0.004915 0.001666
v 0.008479 -0.006897 -0.001777
v -0.008693 -0.004915 -0.001777
v -0.006197 -0.007887 0.000765
v 0.006014 -0.007887 0.000765
v -0.001686 0.084506 0.000086
v 0.001504 0.084506 0.000086
v -0.000091 -0.007887 0.000765
v -0.000091 0.086570 0.000081
v -0.002876 0.082204 0.000086
v 0.002694 0.082301 0.000086
v -0.000091 0.082207 0.000615
v -0.004040 0.079330 0.000086
v 0.003857 0.079661 0.000086
v -0.000091 0.079411 0.001004
v -0.004996 0.075482 0.000212
v 0.004813 0.075813 0.000212
v -0.000091 0.075500 0.001004
v -0.005596 0.033797 0.000212
v 0.005414 0.033963 0.000212
v -0.000091 0.034484 0.001004
v -0.006197 -0.007887 -0.000768
v 0.006014 -0.007887 -0.000768
v -0.001686 0.084506 -0.000088
v 0.001504 0.084506 -0.000088
v -0.000091 -0.007887 -0.000768
v -0.000091 0.086570 -0.000083
v -0.002876 0.082204 -0.000088
v 0.002694 0.082301 -0.000088
v -0.000091 0.082207 -0.000617
v -0.004040 0.079330 -0.000088
v 0.003857 0.079661 -0.000088
v -0.000091 0.079411 -0.001007
v -0.004996 0.075482 -0.000215
v 0.004813 0.075813 -0.000215
v -0.000091 0.075500 -0.001007
v -0.005596 0.033797 -0.000215
v 0.005414 0.033963 -0.000215
v -0.000091 0.034484 -0.001007
v -0.006001 0.005736 0.000212
v 0.005818 0.005790 0.000212
v -0.000091 0.005739 0.001004
v -0.006001 0.005736 -0.000215
v 0.005818 0.005790 -0.000215
v -0.000091 0.005739 -0.001007
v -0.006001 0.005736 0.000765
v -0.006197 -0.007887 0.000765
v -0.000091 -0.007887 0.000765
v 0.006014 -0.007887 0.000765
v -0.006001 0.005736 -0.000768
v -0.006197 -0.007887 -0.000768
v -0.000091 -0.007887 -0.000768
v 0.006014 -0.007887 -0.000768
v 0.005818 0.005790 0.000765
v -0.000091 0.005739 0.000765
v 0.005818 0.005790 -0.000768
v -0.000091 0.005739 -0.000768
v -0.006318 0.005737 0.000958
v -0.006525 -0.007887 0.000948
v -0.000091 -0.007887 0.001031
v 0.006343 -0.007887 0.000948
v -0.006318 0.005737 -0.000961
v -0.006525 -0.007887 -0.000950
v -0.000091 -0.007887 -0.001034
v 0.006343 -0.007887 -0.000950
v 0.006136 0.005791 0.000958
v -0.000091 0.005739 0.001031
v 0.006136 0.005791 -0.000961
v -0.000091 0.005739 -0.001034
v -0.006197 -0.007887 -0.000001
v 0.006014 -0.007887 -0.000001
v -0.001686 0.084506 -0.000001
v 0.001504 0.084506 -0.000001
v -0.000091 -0.007887 -0.000001
v -0.000091 0.086570 -0.000001
v -0.002876 0.082204 -0.000001
v 0.002694 0.082301 -0.000001
v -0.004040 0.079330 -0.000001
v 0.003857 0.079661 -0.000001
v -0.004996 0.075482 -0.000001
v 0.004813 0.075813 -0.000001
v -0.005596 0.033797 -0.000001
v 0.005414 0.033963 -0.000001
v 0.005818 0.005790 -0.000001
v -0.006001 0.005736 -0.000001
v -0.006197 -0.007887 -0.000001
v 0.006014 -0.007887 -0.000001
v 0.005818 0.005790 -0.000001
v -0.006001 0.005736 -0.000001
v -0.006525 -0.007887 -0.000001
v 0.006343 -0.007887 -0.000001
v 0.006136 0.005791 -0.000001
v -0.006318 0.005737 -0.000001
vn -0.0000 -0.0000 -0.0077
vn -0.0000 -0.0000 0.0077
vn 0.0051 0.0556 -0.0000
vn -0.0039 -0.0570 -0.0000
vn -0.0000 0.0371 -0.0059
vn 0.0046 -0.0562 -0.0000
vn -0.0046 -0.0562 -0.0000
vn -0.0000 0.0371 0.0059
vn -0.0000 -0.0002 0.0077
vn -0.0153 -0.0011 -0.0000
vn 0.0153 -0.0010 -0.0000
vn -0.0000 -0.0002 -0.0077
vn -0.0000 0.0393 0.0057
vn -0.0153 -0.0000 -0.0000
vn 0.0153 -0.0000 -0.0000
vn 0.0047 -0.0000 0.0073
vn -0.0039 -0.0000 0.0074
vn 0.0044 -0.0000 -0.0073
vn -0.0041 -0.0567 -0.0000
vn -0.0039 -0.0000 -0.0074
vn 0.0031 0.0577 -0.0000
vn -0.0000 -0.0107 0.0075
vn -0.0153 0.0053 -0.0000
vn 0.0153 0.0053 -0.0000
vn -0.0000 -0.0107 -0.0075
vn -0.0000 0.0589 -0.0000
vn -0.0000 -0.0589 -0.0000
vn -0.0000 0.0393 -0.0057
vn -0.0000 -0.0294 0.0066
vn -0.0139 -0.0252 -0.0000
vn 0.0139 -0.0252 -0.0000
vn -0.0000 -0.0294 -0.0066
vn -0.0000 0.0426 -0.0053
vn 0.0114 0.0393 -0.0000
vn -0.0114 0.0393 -0.0000
vn -0.0000 0.0426 0.0053
vn 0.0096 -0.0460 -0.0000
vn 0.0013 -0.0587 -0.0000
vn -0.0096 -0.0460 -0.0000
vn -0.0013 -0.0587 -0.0000
vn -0.0000 0.0588 0.0006
vn 0.0009 0.0588 -0.0000
vn -0.0009 0.0588 -0.0000
vn -0.0000 0.0587 -0.0007
vn 0.0005 0.0589 -0.0000
vn 0.0038 0.0373 0.0056
vn -0.0039 0.0370 0.0056
vn -0.0048 0.0368 0.0055
vn 0.0046 0.0375 0.0055
vn 0.0053 0.0162 0.0069
vn -0.0053 0.0163 0.0069
vn -0.0045 0.0005 0.0073
vn 0.0045 0.0005 0.0073
vn 0.0041 0.0004 0.0074
vn -0.0041 0.0004 0.0074
vn 0.0038 0.0373 -0.0056
vn -0.0039 0.0370 -0.0056
vn -0.0048 0.0368 -0.0055
vn 0.0046 0.0375 -0.0055
vn 0.0053 0.0162 -0.0069
vn -0.0053 0.0163 -0.0069
vn -0.0045 0.0005 -0.0073
vn 0.0045 0.0005 -0.0073
vn 0.0041 0.0004 -0.0074
vn -0.0041 0.0004 -0.0074
vn -0.0153 0.0033 -0.0000
vn 0.0067 0.0531 -0.0000
vn -0.0049 0.0559 -0.0000
vn 0.0049 0.0559 -0.0000
vn -0.0069 0.0526 -0.0000
vn 0.0078 0.0508 -0.0000
vn -0.0083 0.0496 -0.0000
vn 0.0111 0.0407 -0.0000
vn -0.0111 0.0407 -0.0000
vn 0.0153 0.0032 -0.0000
vn 0.0153 0.0034 -0.0000
vn -0.0153 0.0034 -0.0000
vn -0.0004 -0.0001 -0.0077
vn 0.0004 -0.0001 -0.0077
vn -0.0004 -0.0001 0.0077
vn 0.0004 -0.0001 0.0077
vt 0.684625 0.511505
vt 0.721897 0.380047
vt 0.347127 0.604252
vt 0.816075 0.380056
vt 0.347127 0.510074
vt 0.853100 0.000000
vt 0.684739 0.746349
vt 0.721897 0.145975
vt 0.224846 0.798283
vt 0.816075 0.145984
vt 0.224846 0.704105
vt 0.852905 0.234839
vt 0.670178 0.429110
vt 0.256278 0.524887
vt 0.406556 0.820782
vt 0.312545 0.413112
vt 0.316114 0.081803
vt 0.256278 0.689292
vt 0.406556 0.985187
vt 0.656805 0.098045
vt 0.537352 0.786233
vt 0.630458 0.374265
vt 0.278035 0.137849
vt 0.350933 0.786233
vt 0.006617 0.823239
vt 0.621632 0.155773
vt 0.275680 0.356502
vt 0.193036 0.823239
vt 0.344658 0.510074
vt 0.648803 0.737642
vt 0.688500 0.963439
vt 0.662268 0.511505
vt 0.344658 0.510074
vt 0.888154 0.963458
vt 0.648803 0.511505
vt 0.688500 0.738046
vt 0.000000 0.510074
vt 0.344658 0.510074
vt 0.505066 0.846149
vt 0.212363 0.817776
vt 0.334449 0.509948
vt 0.199654 0.817776
vt 0.347127 0.510074
vt 0.827561 0.000011
vt 0.712754 0.511761
vt 0.212363 0.817776
vt 0.660951 0.510999
vt 0.826425 0.511772
vt 0.212363 0.704105
vt 0.304249 0.000126
vt 0.199654 0.704105
vt 0.688500 0.000000
vt 0.713890 0.000000
vt 0.224846 0.817776
vt 0.648283 0.511505
vt 0.339136 0.549175
vt 0.224846 0.704105
vt 0.291572 0.000000
vt 0.339136 0.662846
vt 0.505066 0.959820
vt 0.212363 0.704105
vt 0.675832 0.000506
vt 0.199654 0.704105
vt 0.298823 0.139953
vt 0.347127 0.805969
vt 0.347127 0.805969
vt 0.296508 0.354875
vt 0.196842 0.843580
vt 0.347127 1.000000
vt 0.002811 0.843580
vt 0.642498 0.156789
vt 0.199654 0.510074
vt 0.541158 0.805969
vt 0.651174 0.371552
vt 0.662268 0.737637
vt 0.199654 0.510074
vt 0.888154 0.738065
vt 0.344658 0.510074
vt 0.213809 0.165596
vt 0.385878 0.720992
vt 0.212071 0.326908
vt 0.158091 0.760609
vt 0.041563 0.760609
vt 0.558925 0.187140
vt 0.502406 0.720992
vt 0.565437 0.348333
vt 0.347127 0.199526
vt 0.730811 0.770770
vt 0.042264 0.547748
vt 0.501705 0.511505
vt 0.353339 0.353302
vt 0.730811 0.924165
vt 0.001658 0.166977
vt 0.386579 0.511505
vt 0.845937 0.924176
vt 0.000000 0.320866
vt 0.157390 0.547748
vt 0.845937 0.770781
vt 0.662268 0.737637
vt 0.901673 0.525082
vt 0.344658 0.510074
vt 0.648803 0.671557
vt 0.834521 0.511772
vt 0.652746 0.724577
vt 0.887757 0.515670
vt 0.635336 0.577637
vt 0.834521 0.738046
vt 0.648803 0.511505
vt 0.901673 0.724736
vt 0.344658 0.510074
vt 0.639280 0.524601
vt 0.887757 0.734148
vt 0.344658 0.510074
vt 0.648803 0.737642
vt 0.675217 0.520916
vt 0.635336 0.671369
vt 0.741066 0.738046
vt 0.639280 0.724446
vt 0.662268 0.511505
vt 0.688500 0.734148
vt 0.648803 0.577827
vt 0.741066 0.511772
vt 0.662268 0.511505
vt 0.344658 0.510074
vt 0.675217 0.720570
vt 0.652746 0.524736
vt 0.662268 0.729982
vt 0.688500 0.515670
vt 0.334449 0.081985
vt 0.852905 0.428384
vt 0.330881 0.413294
vt 0.852905 0.098139
vt 0.688500 0.428369
vt 0.675127 0.097313
vt 0.688500 0.098123
vt 0.635336 0.746155
vt 0.344658 0.510074
vt 0.855607 0.000000
vt 0.635336 0.511510
vt 0.234391 0.704105
vt 0.862426 0.234839
vt 0.682118 0.511505
vt 0.541158 0.746149
vt 0.344658 0.604252
vt 0.675217 0.746349
vt 0.541158 0.511505
vt 0.234391 0.798283
vt 0.000000 0.000000
vt 1.000000 0.000000
vt 0.000000 1.000000
vt 1.000000 1.000000
vt 0.500000 0.000000
vt 0.500000 1.000000
vt 0.000000 0.888298
vt 1.000000 0.888298
vt 0.500000 0.888298
vt 0.000000 0.859964
vt 1.000000 0.859964
vt 0.500000 0.859964
vt 0.000000 0.822024
vt 1.000000 0.822024
vt 0.500000 0.822024
vt 0.000000 0.411012
vt 1.000000 0.411012
vt 0.500000 0.411012
vt 0.000000 0.000000
vt 1.000000 0.000000
vt 0.000000 1.000000
vt 1.000000 1.000000
vt 0.500000 0.000000
vt 0.500000 1.000000
vt 0.000000 0.888298
vt 1.000000 0.888298
vt 0.500000 0.888298
vt 0.000000 0.859964
vt 1.000000 0.859964
vt 0.500000 0.859964
vt 0.000000 0.822024
vt 1.000000 0.822024
vt 0.500000 0.822024
vt 0.000000 0.411012
vt 1.000000 0.411012
vt 0.500000 0.411012
vt 0.000000 0.134327
vt 1.000000 0.134327
vt 0.500000 0.134327
vt 0.000000 0.134327
vt 1.000000 0.134327
vt 0.500000 0.134327
vt 0.000000 0.134327
vt 0.000000 0.000000
vt 0.500000 0.000000
vt 1.000000 0.000000
vt 0.000000 0.134327
vt 0.000000 0.000000
vt 0.500000 0.000000
vt 1.000000 0.000000
vt 1.000000 0.134327
vt 0.500000 0.134327
vt 1.000000 0.134327
vt 0.500000 0.134327
vt 0.000000 0.134327
vt 0.000000 0.000000
vt 0.500000 0.000000
vt 1.000000 0.000000
vt 0.000000 0.134327
vt 0.000000 0.000000
vt 0.500000 0.000000
vt 1.000000 0.000000
vt 1.000000 0.134327
vt 0.500000 0.134327
vt 1.000000 0.134327
vt 0.500000 0.134327
vt 0.000000 0.000000
vt 1.000000 0.000000
vt 0.000000 1.000000
vt 1.000000 1.000000
vt 0.500000 0.000000
vt 0.500000 1.000000
vt 0.000000 0.888298
vt 1.000000 0.888298
vt 0.000000 0.859964
vt 1.000000 0.859964
vt 0.000000 0.822024
vt 1.000000 0.822024
vt 0.000000 0.411012
vt 1.000000 0.411012
vt 1.000000 0.134327
vt 0.000000 0.134327
vt 0.000000 0.000000
vt 1.000000 0.000000
vt 1.000000 0.134327
vt 0.000000 0.134327
vt 0.000000 0.000000
vt 1.000000 0.000000
vt 1.000000 0.134327
vt 0.000000 0.134327
s 0
usemtl Material.003
f 1/1/1 3/7/1 56/145/1 55/142/1
f 7/17/2 49/129/2 50/131/2 6/16/2
f 51/133/3 49/130/3 19/48/3 18/45/3
f 8/19/4 6/15/4 16/39/4 23/60/4
f 8/20/1 52/134/1 51/133/1 5/13/1
f 26/71/5 8/20/5 5/13/5 27/74/5
f 27/72/6 5/14/6 7/18/6 24/63/6
f 25/66/7 6/15/7 8/19/7 26/69/7
f 24/64/8 7/17/8 6/16/8 25/67/8
usemtl Material
f 35/93/9 29/79/9 30/81/9 36/96/9
f 36/97/10 30/82/10 31/83/10 33/89/10
f 34/90/11 32/85/11 29/80/11 35/94/11
f 33/87/12 31/84/12 32/86/12 34/91/12
usemtl Material.003
f 14/32/13 28/75/13 37/99/13 39/104/13 38/102/13 46/121/13 48/126/13 47/123/13
f 16/40/14 17/42/14 20/51/14 23/61/14
f 21/54/15 18/46/15 19/49/15 22/57/15
f 49/129/16 7/17/16 22/58/16 19/50/16
f 6/16/17 50/131/17 17/43/17 16/41/17
f 5/13/18 51/133/18 18/47/18 21/55/18
f 7/18/19 5/14/19 21/56/19 22/59/19
f 52/134/20 8/20/20 23/62/20 20/52/20
f 50/132/21 52/135/21 20/53/21 17/44/21
f 12/27/22 10/23/22 24/64/22 25/67/22
f 11/25/23 12/28/23 25/68/23 26/70/23
f 10/24/24 9/21/24 27/73/24 24/65/24
f 9/22/25 11/26/25 26/71/25 27/74/25
usemtl Material
f 13/29/26 14/33/26 47/124/26 43/113/26
usemtl Material.003
f 40/107/27 44/117/27 46/122/27 38/103/27
f 15/35/28 13/30/28 43/114/28 45/118/28 44/116/28 40/106/28 42/111/28 41/108/28
usemtl Material
f 30/81/29 29/79/29 10/23/29 12/27/29
f 31/83/30 30/82/30 12/28/30 11/25/30
f 29/80/31 32/85/31 9/21/31 10/24/31
f 32/86/32 31/84/32 11/26/32 9/22/32
usemtl Material.003
f 33/88/33 34/92/33 13/31/33 15/36/33
f 34/92/34 35/95/34 14/34/34 13/31/34
f 36/97/35 33/89/35 15/37/35 28/76/35
f 35/95/36 36/98/36 28/77/36 14/34/36
f 43/115/37 47/125/37 48/127/37 45/119/37
f 45/120/38 48/128/38 46/122/38 44/117/38
f 37/100/39 41/109/39 42/112/39 39/105/39
f 39/105/40 42/112/40 40/107/40 38/103/40
usemtl Material
f 28/78/26 15/38/26 41/110/26 37/101/26
usemtl Material.003
f 2/4/41 4/10/41 50/132/41 49/130/41
f 1/2/42 2/4/42 49/130/42 51/133/42
f 4/10/43 3/8/43 52/135/43 50/132/43
f 3/8/44 1/2/44 51/133/44 52/135/44
f 55/143/45 56/146/45 54/139/45 53/136/45
f 2/5/15 1/3/15 55/144/15 53/137/15
f 3/9/14 4/11/14 54/140/14 56/147/14
f 4/12/2 2/6/2 53/138/2 54/141/2
usemtl Material.004
f 65/156/46 64/155/46 60/151/46 62/153/46
f 63/154/47 65/156/47 62/153/47 59/150/47
f 66/157/48 68/159/48 65/156/48 63/154/48
f 68/159/49 67/158/49 64/155/49 65/156/49
f 71/162/50 70/161/50 67/158/50 68/159/50
f 69/160/51 71/162/51 68/159/51 66/157/51
f 72/163/52 74/165/52 71/162/52 69/160/52
f 74/165/53 73/164/53 70/161/53 71/162/53
f 95/186/54 94/185/54 73/164/54 74/165/54
f 93/184/55 95/186/55 74/165/55 72/163/55
f 83/174/56 80/171/56 78/169/56 82/173/56
f 81/172/57 77/168/57 80/171/57 83/174/57
f 84/175/58 81/172/58 83/174/58 86/177/58
f 86/177/59 83/174/59 82/173/59 85/176/59
f 89/180/60 86/177/60 85/176/60 88/179/60
f 87/178/61 84/175/61 86/177/61 89/180/61
f 90/181/62 87/178/62 89/180/62 92/183/62
f 92/183/63 89/180/63 88/179/63 91/182/63
f 98/189/64 92/183/64 91/182/64 97/188/64
f 96/187/65 90/181/65 92/183/65 98/189/65
f 138/229/66 135/226/66 90/181/66 96/187/66
f 124/215/27 127/218/27 79/170/27 76/167/27
f 126/217/67 130/221/67 82/173/67 78/169/67
f 125/216/68 128/219/68 80/171/68 77/168/68
f 127/218/27 123/214/27 75/166/27 79/170/27
f 128/219/69 126/217/69 78/169/69 80/171/69
f 129/220/70 125/216/70 77/168/70 81/172/70
f 130/221/71 132/223/71 85/176/71 82/173/71
f 131/222/72 129/220/72 81/172/72 84/175/72
f 132/223/73 134/225/73 88/179/73 85/176/73
f 133/224/74 131/222/74 84/175/74 87/178/74
f 134/225/75 136/227/75 91/182/75 88/179/75
f 135/226/66 133/224/66 87/178/66 90/181/66
f 57/148/26 61/152/26 101/192/26 100/191/26
f 136/227/75 137/228/75 97/188/75 91/182/75
f 79/170/26 75/166/26 104/195/26 105/196/26
f 138/229/26 96/187/26 103/194/26 142/233/26
usemtl Material.005
f 95/186/26 93/184/26 99/190/26 108/199/26
usemtl Material.004
f 123/214/26 57/148/26 100/191/26 139/230/26
f 137/228/26 94/185/26 107/198/26 141/232/26
f 100/191/27 101/192/27 113/204/27 112/203/27
usemtl Material.005
f 141/232/26 107/198/26 119/210/26 145/236/26
usemtl Material.004
f 105/196/27 104/195/27 116/207/27 117/208/27
usemtl Material.005
f 110/201/26 109/200/26 121/212/26 122/213/26
usemtl Material.004
f 101/192/27 102/193/27 114/205/27 113/204/27
f 106/197/27 105/196/27 117/208/27 118/209/27
f 124/215/26 76/167/26 106/197/26 140/231/26
usemtl Material.005
f 94/185/26 95/186/26 108/199/26 107/198/26
usemtl Material.004
f 76/167/26 79/170/26 105/196/26 106/197/26
f 61/152/26 58/149/26 102/193/26 101/192/26
usemtl Material.005
f 96/187/26 98/189/26 110/201/26 103/194/26
f 98/189/26 97/188/26 109/200/26 110/201/26
f 145/236/76 144/235/76 118/209/76 121/212/76
f 143/234/77 146/237/77 115/206/77 116/207/77
f 116/207/78 115/206/78 122/213/78 117/208/78
f 117/208/79 122/213/79 121/212/79 118/209/79
f 112/203/80 113/204/80 120/211/80 111/202/80
f 113/204/81 114/205/81 119/210/81 120/211/81
f 108/199/26 99/190/26 111/202/26 120/211/26
usemtl Material.004
f 139/230/27 100/191/27 112/203/27 143/234/27
usemtl Material.005
f 142/233/26 103/194/26 115/206/26 146/237/26
f 107/198/26 108/199/26 120/211/26 119/210/26
usemtl Material.004
f 140/231/27 106/197/27 118/209/27 144/235/27
usemtl Material.005
f 103/194/26 110/201/26 122/213/26 115/206/26
usemtl Material.004
f 102/193/27 140/231/27 144/235/27 114/205/27
usemtl Material.005
f 99/190/26 142/233/26 146/237/26 111/202/26
usemtl Material.004
f 104/195/27 139/230/27 143/234/27 116/207/27
usemtl Material.005
f 112/203/77 111/202/77 146/237/77 143/234/77
f 119/210/76 114/205/76 144/235/76 145/236/76
usemtl Material.004
f 58/149/26 124/215/26 140/231/26 102/193/26
usemtl Material.005
f 109/200/26 141/232/26 145/236/26 121/212/26
usemtl Material.004
f 97/188/14 137/228/14 141/232/14 109/200/14
f 75/166/26 123/214/26 139/230/26 104/195/26
f 93/184/26 138/229/26 142/233/26 99/190/26
f 73/164/75 94/185/75 137/228/75 136/227/75
f 72/163/66 69/160/66 133/224/66 135/226/66
f 70/161/75 73/164/75 136/227/75 134/225/75
f 69/160/74 66/157/74 131/222/74 133/224/74
f 67/158/73 70/161/73 134/225/73 132/223/73
f 66/157/72 63/154/72 129/220/72 131/222/72
f 64/155/71 67/158/71 132/223/71 130/221/71
f 63/154/70 59/150/70 125/216/70 129/220/70
f 62/153/69 60/151/69 126/217/69 128/219/69
f 61/152/27 57/148/27 123/214/27 127/218/27
f 59/150/68 62/153/68 128/219/68 125/216/68
f 60/151/67 64/155/67 130/221/67 126/217/67
f 58/149/27 61/152/27 127/218/27 124/215/27
f 93/184/66 72/163/66 135/226/66 138/229/66
